<?xml version="1.0" encoding="UTF-8" standalone="no"?><!DOCTYPE svg PUBLIC "-//W3C//DTD SVG 1.1//EN" "http://www.w3.org/Graphics/SVG/1.1/DTD/svg11.dtd"><svg width="100%" height="100%" viewBox="0 0 954 206" version="1.1" xmlns="http://www.w3.org/2000/svg" xmlns:xlink="http://www.w3.org/1999/xlink" xml:space="preserve" xmlns:serif="http://www.serif.com/" style="fill-rule:evenodd;clip-rule:evenodd;stroke-linejoin:round;stroke-miterlimit:2;"><g><g><path d="M146.182,132.696c-0.667,-0 -2.042,-0.625 -4.125,-1.875c-2.083,-1.25 -4.042,-2.75 -5.875,-4.5c-1.833,-1.75 -2.75,-3.375 -2.75,-4.875c-0,-1 0.25,-1.5 0.75,-1.5c0.333,-0 0.875,0.125 1.625,0.375c0.75,0.25 1.625,0.541 2.625,0.875c-1,-2 -1.667,-4.167 -2,-6.5c-0,-0.334 0.917,-2.167 2.75,-5.5c1.833,-3.334 4.125,-7.417 6.875,-12.25c2.75,-4.834 5.5,-9.667 8.25,-14.5c2.75,-4.834 5.083,-8.959 7,-12.375c1.917,-3.417 2.875,-5.209 2.875,-5.375c-0,-0.5 -1.083,0.625 -3.25,3.375c-2.167,2.75 -4.625,5.958 -7.375,9.625c-2.75,3.666 -4.875,6.916 -6.375,9.75c2.167,-4.5 4.5,-9.25 7,-14.25c2.5,-5 5.958,-10.959 10.375,-17.875c4.417,-6.917 10.375,-15.459 17.875,-25.625c2.333,1 4.917,2.208 7.75,3.625c2.833,1.416 5.25,2.958 7.25,4.625c2,1.666 3,3.416 3,5.25c-0,0.666 -0.25,1.416 -0.75,2.25c-6,8 -11.417,15.583 -16.25,22.75c-4.833,7.166 -8.75,13.166 -11.75,18c-3,4.833 -4.833,7.833 -5.5,9c1.333,-0.834 3.083,-1.875 5.25,-3.125c2.167,-1.25 4.583,-2.709 7.25,-4.375c-0.667,0.666 -1.333,1.208 -2,1.625c-0.667,0.416 -1.167,0.791 -1.5,1.125c-0.5,0.333 -1.125,0.958 -1.875,1.875c-0.75,0.916 -0.792,1.208 -0.125,0.875c2.333,-1.834 6.333,-4.625 12,-8.375c5.667,-3.75 11.875,-8 18.625,-12.75c6.75,-4.75 12.708,-9.375 17.875,-13.875c-4.167,2.5 -8.917,5.75 -14.25,9.75c5.667,-4.5 11.042,-9.167 16.125,-14c5.083,-4.834 8.458,-8.25 10.125,-10.25c-0.167,-0.5 -0.25,-1.042 -0.25,-1.625l-0,-1.625c-0,-4.5 1.333,-8.125 4,-10.875c2.667,-2.75 4.833,-4.792 6.5,-6.125c1.667,-1.334 3.083,-2 4.25,-2c2,-0 3.583,1.208 4.75,3.625c1.167,2.416 1.75,4.958 1.75,7.625c-0,3.166 -0.583,5.416 -1.75,6.75c-0.833,1.166 -3.458,3.791 -7.875,7.875c-4.417,4.083 -9.833,8.916 -16.25,14.5c-6.417,5.583 -13.083,11.291 -20,17.125c-6.917,5.833 -13.417,11.291 -19.5,16.375c-6.083,5.083 -11.042,9.125 -14.875,12.125c-2.667,2 -5.167,3.958 -7.5,5.875c-2.333,1.916 -4.5,3.708 -6.5,5.375c0.5,0.166 1.042,0.583 1.625,1.25c0.583,0.666 0.875,1.5 0.875,2.5c-0,0.833 -1,2.083 -3,3.75c-2,1.666 -4.333,3.166 -7,4.5c-2.667,1.333 -4.917,2 -6.75,2Zm58,-62.5l0.25,-0l-0,-0.25l0.5,-0l-0,-0.25l0.25,-0l-0,-0.25l0.25,-0l0.25,-0.25c-0,-0 -0.083,0.083 -0.25,0.25l-0.25,-0l-0,0.25l-0.25,-0l-0,0.25l-0.5,-0l-0,0.25l-0.25,-0Zm-25.5,17.5c1.667,-1.334 3.667,-2.834 6,-4.5c2.333,-1.667 5.083,-3.417 8.25,-5.25c1.167,-0.834 2.75,-1.875 4.75,-3.125c2,-1.25 4.083,-2.709 6.25,-4.375c-3,2.166 -5.792,4.25 -8.375,6.25c-2.583,2 -4.792,3.583 -6.625,4.75l-10.25,6.25Z" style="fill:#09cfff;fill-rule:nonzero;"/><path d="M243.182,130.446c-1,-0 -2.542,-1.125 -4.625,-3.375c-2.083,-2.25 -4.167,-4.75 -6.25,-7.5c-2.083,-2.75 -3.625,-4.792 -4.625,-6.125c1.5,-6.5 4.125,-13.292 7.875,-20.375c3.75,-7.084 8.125,-14.042 13.125,-20.875c5,-6.834 10.042,-13.167 15.125,-19c5.083,-5.834 9.542,-10.75 13.375,-14.75c-2.833,2.166 -5.833,4.958 -9,8.375c-3.167,3.416 -5.333,5.708 -6.5,6.875c-2,2 -4,3.958 -6,5.875c-2,1.916 -3.833,3.791 -5.5,5.625c5,-6.167 9.958,-11.834 14.875,-17c4.917,-5.167 8.458,-8.584 10.625,-10.25c0.5,-0.5 1.208,-1.084 2.125,-1.75c0.917,-0.667 1.958,-1.084 3.125,-1.25l2,-2.25c4.5,0.166 9.333,1.541 14.5,4.125c5.167,2.583 9.625,5.916 13.375,10c3.75,4.083 5.708,8.708 5.875,13.875c-0,0.666 -0.333,1.291 -1,1.875c-0.667,0.583 -1.167,0.291 -1.5,-0.875c-1.167,-2.5 -2.5,-4.75 -4,-6.75c-1.5,-2 -3.167,-3.584 -5,-4.75c-1.667,-1 -3.417,-1.5 -5.25,-1.5c-2,-0 -3.833,0.666 -5.5,2c-3.333,2.5 -7.292,6.208 -11.875,11.125c-4.583,4.916 -9.167,10.208 -13.75,15.875c-4.583,5.666 -8.667,11.166 -12.25,16.5c-3.583,5.333 -6.042,9.75 -7.375,13.25c1,-1.167 2.75,-2.834 5.25,-5c2.5,-2.167 5.167,-4.375 8,-6.625c2.833,-2.25 5.25,-4.125 7.25,-5.625c0.667,-0.5 2.083,-1.5 4.25,-3c2.167,-1.5 4.458,-3.084 6.875,-4.75c2.417,-1.667 4.375,-2.917 5.875,-3.75c-0,0.333 -0.958,1.25 -2.875,2.75c-1.917,1.5 -4.208,3.166 -6.875,5c-2.667,1.833 -5.125,3.5 -7.375,5c-2.25,1.5 -3.625,2.5 -4.125,3c-1.833,1.666 -3.958,3.583 -6.375,5.75c-2.417,2.166 -4.625,4.166 -6.625,6c-2,1.833 -3.333,3.166 -4,4c-0.333,0.666 -0.417,1.083 -0.25,1.25c0.167,0.166 0.5,-0.084 1,-0.75c1.5,-2.167 3.75,-4.5 6.75,-7c3,-2.5 6.292,-5.042 9.875,-7.625c3.583,-2.584 6.792,-4.959 9.625,-7.125c3.333,-2.5 6.375,-4.709 9.125,-6.625c2.75,-1.917 5.208,-3.709 7.375,-5.375c0.167,-3.5 1.458,-5.917 3.875,-7.25c2.417,-1.334 4.292,-1.75 5.625,-1.25c1,0.333 2.542,0.958 4.625,1.875c2.083,0.916 3.958,2 5.625,3.25c1.667,1.25 2.167,2.625 1.5,4.125c-1.167,2.666 -2.042,6.791 -2.625,12.375c-0.583,5.583 -0.875,10.708 -0.875,15.375c-0,6.666 2.083,10 6.25,10c2.167,-0 5.083,-1.167 8.75,-3.5c1.333,-0.834 2.333,-1.25 3,-1.25c0.5,-0 0.75,0.25 0.75,0.75c-0,0.666 -0.417,1.625 -1.25,2.875c-0.833,1.25 -1.417,2.041 -1.75,2.375c-2,2.166 -4.375,4.125 -7.125,5.875c-2.75,1.75 -5.542,2.625 -8.375,2.625c-1.167,-0 -2.333,-0.167 -3.5,-0.5c-1.167,-0.334 -2.333,-0.917 -3.5,-1.75c-4.167,-2.834 -7.125,-7.167 -8.875,-13c-1.75,-5.834 -2.625,-10.834 -2.625,-15c-0,-1 0.042,-1.917 0.125,-2.75c0.083,-0.834 0.208,-1.584 0.375,-2.25c-1.833,1.5 -4.875,4.041 -9.125,7.625c-4.25,3.583 -8.958,7.583 -14.125,12c-5.167,4.416 -10.083,8.541 -14.75,12.375c-4.667,3.833 -8.25,6.666 -10.75,8.5Z" style="fill:#09cfff;fill-rule:nonzero;"/><path d="M310.432,203.196c-1.167,-0 -2.542,-0.417 -4.125,-1.25c-1.583,-0.834 -2.875,-1.917 -3.875,-3.25c-3.333,-4.667 -5,-10.667 -5,-18c-0,-4.667 1.708,-11.042 5.125,-19.125c3.417,-8.084 7.958,-17.084 13.625,-27c5.667,-9.917 11.917,-20.042 18.75,-30.375c6.833,-10.334 13.625,-20.084 20.375,-29.25c6.75,-9.167 12.958,-17 18.625,-23.5c-3.333,3.166 -6.792,6.833 -10.375,11c-3.583,4.166 -6.833,8 -9.75,11.5c-2.917,3.5 -4.958,6 -6.125,7.5c-0.167,0.166 -0.208,0.041 -0.125,-0.375c0.083,-0.417 0.458,-1.209 1.125,-2.375c-0,-0.167 0.917,-1.375 2.75,-3.625c1.833,-2.25 4.125,-5.042 6.875,-8.375c2.75,-3.334 5.583,-6.667 8.5,-10c2.917,-3.334 5.625,-6.167 8.125,-8.5c-0.5,-0.834 -0.958,-1.667 -1.375,-2.5c-0.417,-0.834 -0.625,-1.584 -0.625,-2.25c-0,-1.5 1.167,-2.25 3.5,-2.25c1.167,-0 2.167,0.083 3,0.25c2.333,0.333 4.958,1.75 7.875,4.25c2.917,2.5 4.542,4.666 4.875,6.5c-1,1.5 -2.208,3 -3.625,4.5c-1.417,1.5 -2.958,3.166 -4.625,5c3.5,-2.334 7.5,-5.167 12,-8.5c4.5,-3.334 9.125,-6.667 13.875,-10c4.75,-3.334 9.083,-6.125 13,-8.375c3.917,-2.25 6.958,-3.375 9.125,-3.375c4.667,-0 7.917,1.333 9.75,4c1.833,2.666 2.75,5.833 2.75,9.5c-0,2.666 -0.417,5.416 -1.25,8.25c-0.833,2.833 -1.917,5.25 -3.25,7.25c-0.333,0.5 -1.458,2.291 -3.375,5.375c-1.917,3.083 -4.083,6.25 -6.5,9.5c-2.417,3.25 -4.458,5.541 -6.125,6.875c2.833,-4.5 5.167,-8.542 7,-12.125c1.833,-3.584 2.333,-5.375 1.5,-5.375c-4.167,7.666 -7.625,13.666 -10.375,18c-2.75,4.333 -5,7.583 -6.75,9.75c-1.75,2.166 -3.292,4.166 -4.625,6c-6.667,8.666 -14,16.166 -22,22.5c-8,6.333 -16.083,9.5 -24.25,9.5c-3.667,-0 -7.083,-0.667 -10.25,-2c-3,-1.334 -5.542,-2.5 -7.625,-3.5c-2.083,-1 -3.625,-2.084 -4.625,-3.25c-3.5,5.666 -7.167,11.916 -11,18.75c-3.833,6.833 -7.417,13.583 -10.75,20.25c-3.333,6.666 -6.083,12.666 -8.25,18c-2.167,5.333 -3.333,9.333 -3.5,12c-0,2.833 0.917,5.333 2.75,7.5c1.167,1.333 1.75,2.416 1.75,3.25c-0,1.166 -0.833,1.75 -2.5,1.75Zm47,-81.5c1.833,-0.834 4.625,-2.5 8.375,-5c3.75,-2.5 7.042,-5.084 9.875,-7.75c2.167,-2 5.083,-4.875 8.75,-8.625c3.667,-3.75 7.583,-8 11.75,-12.75c4.167,-4.75 8.167,-9.75 12,-15c3.833,-5.25 6.917,-10.459 9.25,-15.625c-0.667,1.166 -1.75,2.666 -3.25,4.5c-1.5,1.833 -3.083,3.75 -4.75,5.75c1.667,-2.167 3.083,-4.209 4.25,-6.125c1.167,-1.917 2.083,-3.459 2.75,-4.625c1.5,-2.667 2.708,-5.084 3.625,-7.25c0.917,-2.167 1.292,-3.834 1.125,-5c-0.667,0.333 -1.458,0.75 -2.375,1.25c-0.917,0.5 -1.875,1.166 -2.875,2c-6.5,4.5 -13.625,9.833 -21.375,16c-7.75,6.166 -15.25,12.708 -22.5,19.625c-7.25,6.916 -13.458,13.791 -18.625,20.625c-1,1.166 -2.167,2.833 -3.5,5c-1.333,2.166 -2.917,4.666 -4.75,7.5c1.667,2 3.417,3 5.25,3c7.833,-0 16.667,-4.584 26.5,-13.75l1.25,-1.25c-0,-0 -0.5,0.5 -1,1c-0.167,-0 -0.25,0.083 -0.25,0.25c-4,3.666 -7.917,6.75 -11.75,9.25c-3.833,2.5 -7.75,4.333 -11.75,5.5c-0.5,0.166 -0.75,0.416 -0.75,0.75c-0,0.333 0.542,0.666 1.625,1c1.083,0.333 2.125,0.25 3.125,-0.25Zm50.75,-53l0.5,-0.5l-0,-0.25l0.25,-0l0.25,-0.25l-0,-0.25l0.25,-0l-0,-0.25l-0,0.25l-0.25,-0l-0,0.25c-0.167,-0 -0.25,0.083 -0.25,0.25l-0.25,-0l-0,0.25c-0.167,0.166 -0.5,0.5 -0.5,0.5Zm-28.5,34c1.333,-1.334 2.625,-2.875 3.875,-4.625c1.25,-1.75 2.542,-3.375 3.875,-4.875c1.833,-2 4.5,-4.959 8,-8.875c3.5,-3.917 6.917,-7.959 10.25,-12.125c-3.667,4.666 -7.75,9.708 -12.25,15.125c-4.5,5.416 -9.083,10.541 -13.75,15.375Z" style="fill:#09cfff;fill-rule:nonzero;"/><path d="M458.932,128.196c-2.333,-0 -4.792,-0.459 -7.375,-1.375c-2.583,-0.917 -4.875,-2.292 -6.875,-4.125c-2,-1.834 -4.125,-4.625 -6.375,-8.375c-2.25,-3.75 -3.375,-7.459 -3.375,-11.125c-0,-1.5 0.25,-2.834 0.75,-4c5.333,-14.334 14,-27.459 26,-39.375c12,-11.917 26.667,-21.959 44,-30.125c2.333,-0 4.75,0.875 7.25,2.625c2.5,1.75 4.583,3.875 6.25,6.375l4.5,1.5c-0.167,-1.834 -0.75,-2.959 -1.75,-3.375c-1,-0.417 -1.5,-1.042 -1.5,-1.875c0.333,-1.5 1.417,-2.375 3.25,-2.625c1.833,-0.25 3.167,-0.375 4,-0.375c2.667,-0 4.875,1.208 6.625,3.625c1.75,2.416 2.708,5.041 2.875,7.875c4,0.5 8.167,0.833 12.5,1c4.333,0.166 8.125,0.291 11.375,0.375c3.25,0.083 6.125,0.125 6.125,0.125c0.5,-0 0.75,0.333 0.75,1c-0,1.166 -0.667,2.166 -2,3c-1.667,1.333 -5.542,2.208 -11.625,2.625c-6.083,0.416 -12.458,0.625 -19.125,0.625c-0.833,2.5 -2.083,5.166 -3.75,8c-1.667,2.833 -3.583,5.75 -5.75,8.75c-1.5,2.166 -3.75,5.041 -6.75,8.625c-3,3.583 -6.083,7.208 -9.25,10.875c-3.167,3.666 -5.833,6.75 -8,9.25c1.5,-1.334 3.958,-3.709 7.375,-7.125c3.417,-3.417 6.208,-6.459 8.375,-9.125c0.833,-1 2.083,-2.625 3.75,-4.875c1.667,-2.25 3.292,-4.417 4.875,-6.5c1.583,-2.084 2.542,-3.459 2.875,-4.125c-2.167,4.5 -4.917,8.833 -8.25,13c-3.333,4.166 -6.667,7.916 -10,11.25c-3.333,3.333 -6.167,6.041 -8.5,8.125c-2.333,2.083 -3.667,3.291 -4,3.625c-7,7.333 -14.042,13.541 -21.125,18.625c-7.083,5.083 -13.125,7.625 -18.125,7.625Zm-8,-8.5c0.833,-0 1.833,-0.25 3,-0.75c1.833,-1 4.208,-2.584 7.125,-4.75c2.917,-2.167 5.958,-4.417 9.125,-6.75c2.833,-2.334 6,-5.209 9.5,-8.625c3.5,-3.417 7.333,-7.459 11.5,-12.125c3.667,-4.167 7.583,-8.709 11.75,-13.625c4.167,-4.917 8.25,-10.042 12.25,-15.375l-3.75,3.5c1.167,-1.167 2.625,-2.792 4.375,-4.875c1.75,-2.084 3.208,-3.709 4.375,-4.875c-5.167,-0.334 -8.25,-0.584 -9.25,-0.75c-0.167,0.333 -0.417,0.5 -0.75,0.5c-0.333,-0 -0.5,-0.584 -0.5,-1.75l-0,-1.375c-0,-0.584 0.083,-1.209 0.25,-1.875c-1.667,-0.167 -3.5,0.083 -5.5,0.75c-2,0.666 -4.25,2.083 -6.75,4.25c-2.833,2.666 -6.5,6 -11,10c-4.5,4 -9.167,8.541 -14,13.625c-4.833,5.083 -9.375,10.541 -13.625,16.375c-4.25,5.833 -7.625,12 -10.125,18.5c-0.833,2 -1.25,4 -1.25,6c-0,2.833 1.25,3.666 3.75,2.5c-0.833,0.5 -1.25,0.833 -1.25,1c-0,0.333 0.25,0.5 0.75,0.5Zm0.5,-1.5c3.167,-1.667 8.208,-5.209 15.125,-10.625c6.917,-5.417 13.958,-12.042 21.125,-19.875c2.333,-2.5 5,-5.375 8,-8.625c3,-3.25 5.917,-6.375 8.75,-9.375c2.833,-3 5,-5.334 6.5,-7c-3.833,4.666 -7.375,8.875 -10.625,12.625c-3.25,3.75 -6.375,7.291 -9.375,10.625c-7,7.5 -14.125,14.25 -21.375,20.25c-7.25,6 -13.292,10 -18.125,12Z" style="fill:#09cfff;fill-rule:nonzero;"/><path d="M583.182,129.196c-3.167,-2 -5.917,-4.459 -8.25,-7.375c-2.333,-2.917 -3.25,-5.459 -2.75,-7.625c0.333,-1.667 1.458,-4.25 3.375,-7.75c1.917,-3.5 4.208,-7.417 6.875,-11.75c2.667,-4.334 5.375,-8.75 8.125,-13.25c2.75,-4.5 5.208,-8.5 7.375,-12c0.333,-0.5 -0.125,0.125 -1.375,1.875c-1.25,1.75 -2.833,4 -4.75,6.75c-1.917,2.75 -3.75,5.5 -5.5,8.25c-1.75,2.75 -3.042,4.791 -3.875,6.125c-0,-0.834 0.708,-2.417 2.125,-4.75c1.417,-2.334 3.042,-4.875 4.875,-7.625c1.833,-2.75 8.083,-12.125 8.75,-13.125c-4.5,5 -9.667,10.625 -15.5,16.875c-5.833,6.25 -11.625,12.375 -17.375,18.375c-5.75,6 -10.833,11.25 -15.25,15.75c-4.417,4.5 -7.375,7.5 -8.875,9c-4.5,-1.5 -7.667,-3.834 -9.5,-7c-1.833,-3.167 -2.75,-6.25 -2.75,-9.25c-0,-1.667 0.25,-3.25 0.75,-4.75c1.833,-3.834 4.375,-8.625 7.625,-14.375c3.25,-5.75 6.708,-11.625 10.375,-17.625c3.667,-6 7.083,-11.625 10.25,-16.875c3.167,-5.25 5.583,-9.292 7.25,-12.125c-0.167,-1.167 -0.708,-2.584 -1.625,-4.25c-0.917,-1.667 -1.375,-3.084 -1.375,-4.25c-0,-1.334 1.167,-2 3.5,-2l1.875,-0c0.75,-0 1.625,0.166 2.625,0.5c1.167,0.166 3,0.666 5.5,1.5c2.5,0.833 4.792,2.041 6.875,3.625c2.083,1.583 3.125,3.708 3.125,6.375c-0,1.833 -0.583,3.666 -1.75,5.5c-2,2.333 -4.375,5.666 -7.125,10c-2.75,4.333 -5.5,8.916 -8.25,13.75c-2.75,4.833 -5.25,9.291 -7.5,13.375c-2.25,4.083 -3.792,7.041 -4.625,8.875c1.333,-0.834 3.75,-2.917 7.25,-6.25c3.5,-3.334 7.542,-7.334 12.125,-12c4.583,-4.667 9.208,-9.375 13.875,-14.125c4.667,-4.75 8.833,-8.792 12.5,-12.125c-0,-0.667 0.875,-2.459 2.625,-5.375c1.75,-2.917 3.833,-6.042 6.25,-9.375c2.417,-3.334 4.458,-5.75 6.125,-7.25c2.167,0.833 4.542,1.958 7.125,3.375c2.583,1.416 4.833,2.916 6.75,4.5c1.917,1.583 2.875,3.125 2.875,4.625c-0,0.666 -0.25,1.416 -0.75,2.25c-5.5,7.666 -10.667,14.791 -15.5,21.375c-4.833,6.583 -8.833,12.041 -12,16.375c-3.167,4.333 -5,7.083 -5.5,8.25c1.333,-1.167 2.833,-2.417 4.5,-3.75c2.667,-2.5 6.5,-5.25 11.5,-8.25c6.167,-4 13.292,-8.125 21.375,-12.375c8.083,-4.25 16.625,-7.792 25.625,-10.625c1.5,-0.5 2.667,-0.75 3.5,-0.75c1.5,-0 1.833,0.625 1,1.875c-0.833,1.25 -2.125,2.625 -3.875,4.125c-1.75,1.5 -3.542,2.666 -5.375,3.5c-9,4.5 -17.5,9.333 -25.5,14.5c-8,5.166 -15.333,10.916 -22,17.25c-5,4.666 -9.583,9.791 -13.75,15.375c-4.167,5.583 -8.833,10.958 -14,16.125Zm20.25,-39.5c-0,0.166 0.5,0.041 1.5,-0.375c1,-0.417 1.75,-0.792 2.25,-1.125c3.5,-2.667 7.958,-5.542 13.375,-8.625c5.417,-3.084 10.708,-5.959 15.875,-8.625c5.167,-2.667 8.917,-4.5 11.25,-5.5c1.333,-0.5 3.125,-1.334 5.375,-2.5c2.25,-1.167 2.958,-1.584 2.125,-1.25c-2.5,0.666 -5.958,1.958 -10.375,3.875c-4.417,1.916 -9.167,4.166 -14.25,6.75c-5.083,2.583 -9.875,5.208 -14.375,7.875c-2.167,1.5 -4.208,2.958 -6.125,4.375c-1.917,1.416 -3.708,2.708 -5.375,3.875c-0.333,0.333 -1.25,1.25 -1.25,1.25Z" style="fill:#09cfff;fill-rule:nonzero;"/><path d="M706.182,160.446c-7.5,-0 -14.875,-0.709 -22.125,-2.125c-7.25,-1.417 -13.542,-3.292 -18.875,-5.625c-5.667,-2.667 -9.833,-5.959 -12.5,-9.875c-2.667,-3.917 -4,-8.375 -4,-13.375c-0,-9.334 4.042,-20.5 12.125,-33.5c8.083,-13 18.292,-27.084 30.625,-42.25c1.167,-1.334 2.167,-2.584 3,-3.75c0.833,-1.167 1.583,-2.25 2.25,-3.25c-3.333,1.166 -6.708,2.166 -10.125,3c-3.417,0.833 -6.625,1.25 -9.625,1.25c-5,4 -10.708,8.375 -17.125,13.125c-6.417,4.75 -12.958,9.541 -19.625,14.375c-6.667,4.833 -12.917,9.25 -18.75,13.25c-5.833,4 -10.5,7.166 -14,9.5c-0.167,-2.834 0.875,-5.542 3.125,-8.125c2.25,-2.584 4.917,-5.042 8,-7.375c3.083,-2.334 6,-4.375 8.75,-6.125c2.75,-1.75 4.542,-3.209 5.375,-4.375l4,-4.25c4.333,-3.334 8.792,-6.75 13.375,-10.25c4.583,-3.5 8.208,-6.334 10.875,-8.5c-2.667,1.833 -5.458,3.75 -8.375,5.75c-2.917,2 -5.792,4.166 -8.625,6.5c3.333,-3 6.875,-6.125 10.625,-9.375c3.75,-3.25 7.042,-6.042 9.875,-8.375c-2,-1.834 -3,-4.084 -3,-6.75c-0,-1.167 0.125,-2.292 0.375,-3.375c0.25,-1.084 0.458,-2.209 0.625,-3.375c0.5,-2.167 1.25,-4.917 2.25,-8.25c1,-3.334 2.208,-6.667 3.625,-10c1.417,-3.334 3,-6.125 4.75,-8.375c1.75,-2.25 3.458,-3.209 5.125,-2.875c2.833,0.333 5,1.916 6.5,4.75c1.5,2.833 2.708,5.916 3.625,9.25c0.917,3.333 1.708,6.166 2.375,8.5c0.833,2.166 0.25,4.583 -1.75,7.25c-2,2.666 -4.167,5.166 -6.5,7.5c-2.333,2.333 -3.75,4.25 -4.25,5.75c2.333,-0.667 5.625,-1.584 9.875,-2.75c4.25,-1.167 8.375,-2.584 12.375,-4.25c1.167,-2.334 1.917,-4 2.25,-5c0.333,-1 1.25,-1.417 2.75,-1.25l5,1.5c1.833,-1 3.333,-2.167 4.5,-3.5c0.833,-0.834 1.5,-1.25 2,-1.25c0.667,-0 1,0.416 1,1.25c-0,0.5 -0.292,1.25 -0.875,2.25c-0.583,1 -1.542,2.083 -2.875,3.25c1.333,0.666 2.5,1.5 3.5,2.5c1,1 1.917,1.916 2.75,2.75c0.833,1 1.542,1.875 2.125,2.625c0.583,0.75 0.875,1.458 0.875,2.125c-0,1.833 -2.5,4.5 -7.5,8c-6.667,6.166 -11.917,11.416 -15.75,15.75c-3.833,4.333 -7.042,8.333 -9.625,12c-2.583,3.666 -5.542,7.583 -8.875,11.75c-4.667,6.5 -8.083,12.375 -10.25,17.625c-2.167,5.25 -3.25,9.958 -3.25,14.125c-0,5.833 2.042,10.625 6.125,14.375c4.083,3.75 9.458,6.625 16.125,8.625c7,2 14.917,3 23.75,3c11.333,-0 22.875,-1.334 34.625,-4c11.75,-2.667 21.708,-5.834 29.875,-9.5c18.667,-7.334 31.875,-15.084 39.625,-23.25c7.75,-8.167 11.625,-15.834 11.625,-23c-0,-6.167 -2.208,-11.625 -6.625,-16.375c-4.417,-4.75 -10.25,-8.542 -17.5,-11.375c-7.25,-2.834 -15.292,-4.25 -24.125,-4.25c-4.167,-0 -8.417,0.333 -12.75,1c-4.333,0.666 -8.667,1.833 -13,3.5c-1.5,0.5 -2.75,0.833 -3.75,1c-1,0.166 -1.833,0.25 -2.5,0.25c-1.167,-0 -1.75,-0.25 -1.75,-0.75c-0,-1 1.5,-2.167 4.5,-3.5c6.833,-2.5 13.583,-4.334 20.25,-5.5c6.667,-1.167 13.083,-1.75 19.25,-1.75c10.333,-0 19.5,1.458 27.5,4.375c8,2.916 14.292,6.875 18.875,11.875c4.583,5 6.875,10.75 6.875,17.25c-0,7.666 -3.875,15.916 -11.625,24.75c-7.75,8.833 -20.625,17.416 -38.625,25.75c6,-4.334 9,-6.75 9,-7.25c-0,-0.667 -2.417,0.666 -7.25,4c-8,4.333 -17.25,8.208 -27.75,11.625c-10.5,3.416 -21.583,6.125 -33.25,8.125c-11.667,2 -23.167,3.083 -34.5,3.25c1.833,0.166 3.917,0.458 6.25,0.875c2.333,0.416 5.417,0.625 9.25,0.625c-1.667,0.166 -3.375,0.291 -5.125,0.375c-1.75,0.083 -3.542,0.125 -5.375,0.125Zm-42.75,-110.75l2.5,-2c-0.167,-0 -0.333,-0.084 -0.5,-0.25l-2,2.25Zm-45.25,35.75c2.333,-2.167 5.833,-5.167 10.5,-9c4.667,-3.834 9.75,-7.834 15.25,-12c-2.667,2.166 -5.083,4.333 -7.25,6.5l-14.5,11.5l-4,3Zm101.75,73c25.5,-1.667 49.5,-8.25 72,-19.75c-9.667,5.833 -20.375,10.583 -32.125,14.25c-11.75,3.666 -25.042,5.5 -39.875,5.5Z" style="fill:#09cfff;fill-rule:nonzero;"/></g></g></svg>