<?xml version="1.0" encoding="UTF-8" standalone="no"?><!DOCTYPE svg PUBLIC "-//W3C//DTD SVG 1.1//EN" "http://www.w3.org/Graphics/SVG/1.1/DTD/svg11.dtd"><svg width="100%" height="100%" viewBox="0 0 712 200" version="1.1" xmlns="http://www.w3.org/2000/svg" xmlns:xlink="http://www.w3.org/1999/xlink" xml:space="preserve" xmlns:serif="http://www.serif.com/" style="fill-rule:evenodd;clip-rule:evenodd;stroke-linejoin:round;stroke-miterlimit:2;"><g><g><g transform="matrix(250,0,0,250,497.5,122.565)"><path d="M0.301,0.137c-0.03,0 -0.059,-0.003 -0.089,-0.009c-0.028,-0.005 -0.054,-0.013 -0.075,-0.022c-0.023,-0.011 -0.039,-0.024 -0.05,-0.04c-0.011,-0.015 -0.016,-0.033 -0.016,-0.053c0,-0.037 0.016,-0.082 0.049,-0.134c0.032,-0.052 0.073,-0.108 0.122,-0.169c0.005,-0.005 0.009,-0.01 0.012,-0.015c0.003,-0.005 0.006,-0.009 0.009,-0.013c-0.013,0.005 -0.027,0.009 -0.041,0.012c-0.013,0.003 -0.026,0.005 -0.038,0.005c-0.02,0.016 -0.043,0.034 -0.068,0.053c-0.026,0.019 -0.052,0.038 -0.079,0.057c-0.027,0.019 -0.052,0.037 -0.075,0.053c-0.023,0.016 -0.042,0.029 -0.056,0.038c-0.001,-0.011 0.003,-0.022 0.012,-0.032c0.009,-0.011 0.02,-0.021 0.033,-0.03c0.012,-0.009 0.024,-0.017 0.035,-0.024c0.01,-0.007 0.018,-0.013 0.021,-0.018l0.016,-0.017c0.017,-0.013 0.035,-0.027 0.053,-0.041c0.019,-0.014 0.033,-0.025 0.044,-0.034c-0.011,0.007 -0.022,0.015 -0.033,0.023c-0.012,0.008 -0.024,0.017 -0.035,0.026c0.013,-0.012 0.028,-0.024 0.043,-0.038c0.014,-0.013 0.028,-0.024 0.039,-0.033c-0.008,-0.007 -0.012,-0.016 -0.012,-0.027c-0,-0.005 0,-0.009 0.001,-0.013c0.001,-0.005 0.002,-0.009 0.003,-0.014c0.002,-0.009 0.005,-0.02 0.009,-0.033c0.004,-0.013 0.009,-0.027 0.014,-0.04c0.006,-0.013 0.012,-0.024 0.019,-0.033c0.007,-0.009 0.014,-0.013 0.021,-0.012c0.011,0.001 0.02,0.008 0.026,0.019c0.006,0.011 0.011,0.024 0.015,0.037c0.003,0.013 0.006,0.025 0.009,0.034c0.003,0.009 0.001,0.018 -0.007,0.029c-0.008,0.011 -0.017,0.021 -0.026,0.03c-0.009,0.009 -0.015,0.017 -0.017,0.023c0.009,-0.003 0.023,-0.006 0.04,-0.011c0.017,-0.005 0.033,-0.01 0.049,-0.017c0.005,-0.009 0.008,-0.016 0.009,-0.02c0.001,-0.004 0.005,-0.006 0.011,-0.005l0.02,0.006c0.007,-0.004 0.013,-0.009 0.018,-0.014c0.003,-0.003 0.006,-0.005 0.008,-0.005c0.003,0 0.004,0.002 0.004,0.005c-0,0.002 -0.001,0.005 -0.004,0.009c-0.002,0.004 -0.006,0.008 -0.011,0.013c0.005,0.003 0.01,0.006 0.014,0.01c0.004,0.004 0.008,0.008 0.011,0.011c0.003,0.004 0.006,0.008 0.008,0.011c0.003,0.003 0.004,0.005 0.004,0.008c-0,0.007 -0.01,0.018 -0.03,0.032c-0.027,0.025 -0.048,0.046 -0.063,0.063c-0.015,0.017 -0.028,0.033 -0.039,0.048c-0.01,0.015 -0.022,0.03 -0.035,0.047c-0.019,0.026 -0.032,0.05 -0.041,0.071c-0.009,0.021 -0.013,0.039 -0.013,0.056c-0,0.023 0.008,0.043 0.024,0.058c0.017,0.015 0.038,0.026 0.065,0.034c0.028,0.008 0.06,0.012 0.095,0.012c0.045,0 0.091,-0.005 0.138,-0.016c0.047,-0.011 0.087,-0.023 0.12,-0.038c0.075,-0.029 0.127,-0.06 0.158,-0.093c0.031,-0.033 0.047,-0.063 0.047,-0.092c-0,-0.025 -0.009,-0.046 -0.027,-0.065c-0.017,-0.019 -0.041,-0.035 -0.07,-0.046c-0.029,-0.011 -0.061,-0.017 -0.096,-0.017c-0.017,0 -0.034,0.001 -0.051,0.004c-0.017,0.003 -0.035,0.007 -0.052,0.014c-0.006,0.002 -0.011,0.003 -0.015,0.004c-0.004,0.001 -0.007,0.001 -0.01,0.001c-0.005,0 -0.007,-0.001 -0.007,-0.003c0,-0.004 0.006,-0.009 0.018,-0.014c0.027,-0.01 0.054,-0.017 0.081,-0.022c0.027,-0.005 0.052,-0.007 0.077,-0.007c0.041,0 0.078,0.006 0.11,0.018c0.032,0.011 0.057,0.027 0.076,0.047c0.018,0.02 0.027,0.043 0.027,0.069c0,0.031 -0.015,0.064 -0.046,0.099c-0.031,0.035 -0.083,0.07 -0.155,0.103c0.024,-0.017 0.036,-0.027 0.036,-0.029c0,-0.003 -0.01,0.003 -0.029,0.016c-0.032,0.017 -0.069,0.033 -0.111,0.047c-0.042,0.013 -0.086,0.024 -0.133,0.032c-0.047,0.008 -0.093,0.012 -0.138,0.013c0.007,0.001 0.016,0.002 0.025,0.004c0.009,0.001 0.022,0.002 0.037,0.002c-0.007,0.001 -0.013,0.001 -0.02,0.002c-0.007,-0 -0.015,0 -0.022,0Zm-0.171,-0.443l0.01,-0.008c-0.001,0 -0.001,-0 -0.002,-0.001l-0.008,0.009Zm-0.181,0.143c0.009,-0.009 0.023,-0.021 0.042,-0.036c0.019,-0.015 0.039,-0.031 0.061,-0.048c-0.011,0.009 -0.02,0.017 -0.029,0.026l-0.058,0.046l-0.016,0.012Zm0.407,0.292c0.102,-0.007 0.198,-0.033 0.288,-0.079c-0.039,0.023 -0.081,0.042 -0.128,0.057c-0.047,0.015 -0.101,0.022 -0.16,0.022Z" style="fill:#09cfff;fill-rule:nonzero;"/></g><g transform="matrix(250,0,0,250,497.5,122.565)"></g><g transform="matrix(250,0,0,250,704.25,122.565)"></g><text x="-3.5px" y="122.565px" style="font-family:'Smooch-Regular', 'Smooch';font-size:250px;fill:#09cfff;">vapou</text></g></g></svg>